<svg width="729" height="782" viewBox="0 0 729 782" fill="none" xmlns="http://www.w3.org/2000/svg">
<g clip-path="url(#clip0_49_56741)">
<rect width="729" height="781.5" fill="#E9F19E"/>
<path d="M481.366 384.103C479.616 394.353 475.366 399.853 472.116 401.603C469.782 402.86 467.408 399.779 466.223 397.568L465.866 385.353L470.616 315.103L481.366 305.853C483.866 309.853 489.766 319.553 493.366 326.353C497.866 334.853 489.116 360.103 488.866 362.603C488.616 365.103 483.116 373.853 481.366 384.103Z" fill="#D9B5A7"/>
<path d="M245.616 397.603C248.416 409.003 255.45 407.853 258.616 405.853L255.616 367.603L244.366 297.353L227.366 297.103C225.45 305.936 221.616 324.303 221.616 327.103C221.616 330.603 226.366 350.853 227.366 355.603C228.166 359.403 233.033 369.353 235.366 373.853C237.616 377.02 242.816 386.203 245.616 397.603Z" fill="#D9B5A7"/>
<path d="M437.617 518.103C434.217 502.303 436.2 483.853 437.617 476.603L395.616 479.603L285.366 464.353C285.533 467.936 286.816 479.653 290.616 497.853C295.366 520.603 287.116 538.603 284.116 544.353C281.716 548.953 264.616 561.77 256.366 567.603L276.116 618.103L351.616 638.603L450.866 618.103L476.116 561.853C474.116 561.103 469.593 552.158 461.5 550C446.5 546 441.867 537.853 437.617 518.103Z" fill="#D9B5A7"/>
<path d="M248.866 295.853V223.353L254.366 202.353L285.366 162.353L379.866 147.353L436.116 152.603L466.616 209.853L471.616 235.103V275.853L476.616 313.853C475.533 330.353 473.016 365.003 471.616 371.603C469.866 379.853 469.866 404.603 466.866 428.353C463.866 452.103 456.116 455.603 453.366 464.353C450.616 473.103 427.866 486.853 420.616 492.853C413.366 498.853 382.116 510.103 362.616 510.353C343.116 510.603 324.366 496.103 313.866 492.853C303.366 489.603 286.616 475.103 275.366 459.853C264.116 444.603 264.366 436.603 262.116 433.853C260.316 431.653 256.866 411.103 255.366 401.103L246.866 342.603L248.866 295.853Z" fill="#E2C1B4"/>
<path d="M415.616 262.353C411.416 262.753 403.533 271.187 400.116 275.353L404.866 276.853L415.616 272.853L433.116 271.853C437.45 273.02 446.966 275.353 450.366 275.353C453.766 275.353 460.95 284.687 464.116 289.353V287.103V281.853L453.866 266.603L432.116 262.353C428.366 262.187 419.816 261.953 415.616 262.353Z" fill="#40403A"/>
<path d="M320.366 266.353C325.533 270.52 336.016 278.953 336.616 279.353H329.866L312.366 277.353L284.866 278.353L258.616 286.353L261.366 281.103L271.616 270.353L292.366 266.353H320.366Z" fill="#40403A"/>
<path d="M347.366 374.603C353.566 374.403 359.616 378.853 361.866 381.103C359.865 379.303 356.699 377.853 355.366 377.353C355.966 379.553 352.449 380.77 350.616 381.103C342.816 379.503 345.199 376.103 347.366 374.603Z" fill="#40403A"/>
<path d="M386.616 373.103C379.216 374.303 375.7 380.77 374.866 383.853C375.114 383.186 376.211 381.253 378.616 378.853C381.021 376.453 382.785 378.686 383.366 380.103C390.766 375.103 388.616 373.353 386.616 373.103Z" fill="#40403A"/>
<g filter="url(#filter0_d_49_56741)">
<path d="M391.329 356.085C391.204 355.932 392.988 357.611 393.752 358.75C395.265 361.003 399.728 367.18 398.756 374.065C397.607 382.21 388.092 386.795 385.374 387.85C385.082 387.963 385.73 387.194 385.86 387.134C387.049 386.592 388.234 385.942 389.414 385.201C391.781 383.712 397.263 381.518 398.548 374.193C399.815 366.978 392.963 358.09 391.329 356.085Z" fill="#40403A"/>
</g>
<g filter="url(#filter1_d_49_56741)">
<path d="M338.673 360.071C338.79 359.894 337.162 363.462 336.434 365.158C334.908 368.707 333.872 372.478 334.576 375.543C336.123 382.278 342.576 384.963 349.265 387.421C349.773 387.608 348.641 387.67 348.381 387.578C346.525 386.921 344.675 386.253 342.926 385.47C338.841 383.642 336.408 380.841 334.63 377.185C332.503 372.815 335.056 365.541 338.673 360.071Z" fill="#40403A"/>
</g>
<path d="M355.866 414.103C353.266 414.303 336.116 425.02 327.866 430.353C331.366 432.353 351.616 428.353 354.366 428.353C357.116 428.353 367.616 429.103 372.866 428.353C378.116 427.603 397.866 430.353 400.366 430.353C402.866 430.353 414.554 427.197 410.866 425.353C407.366 423.603 383.116 413.603 379.116 412.103C376.259 411.031 371.116 418.853 369.366 418.353C367.616 417.853 359.116 413.853 355.866 414.103Z" fill="#D08C84"/>
<path d="M346.116 449.603C343.916 446.203 334.033 436.353 329.366 431.853L349.616 426.103C369.783 426.27 410.016 426.853 409.616 427.853C409.116 429.103 392.866 445.353 388.366 451.603C383.866 457.853 368.616 456.853 361.616 456.353C354.616 455.853 348.866 453.853 346.116 449.603Z" fill="#D08C84"/>
<path d="M258.68 289.163C256.161 292.232 253.754 298.274 252.866 300.912C251.655 323.209 253.353 325.409 259.409 336.157C266.434 348.624 287.265 359.413 310.762 353.18C334.26 346.946 339.831 327.046 341.769 323.209C343.707 319.373 345.403 296.356 329.899 284.128C314.396 271.901 305.677 272.62 289.447 273.339C273.217 274.058 261.829 285.327 258.68 289.163Z" fill="#B5A098" fill-opacity="0.4"/>
<path d="M328.866 431.103C329.616 430.853 355.116 427.603 357.116 427.853C359.116 428.103 374.616 427.853 376.116 427.853C377.367 427.853 398.6 428.896 405.917 428.808C407.81 428.522 408.54 428.343 408.366 428.603C408.283 428.728 407.377 428.79 405.917 428.808C402.354 429.347 394.667 430.266 381.116 429.353C375.02 429.603 361.386 429.953 355.616 429.353C348.404 428.603 330.366 432.853 328.866 431.103Z" fill="#40403A"/>
<path d="M293.617 492.853C293.867 502.77 293.567 523.603 290.367 527.603C286.367 532.603 282.117 533.353 275.117 540.103C268.117 546.853 264.367 544.603 250.617 542.353C236.867 540.103 238.867 531.603 252.367 529.603C265.867 527.603 272.366 522.103 262.366 517.103C252.367 512.103 243.366 507.853 247.866 500.353C252.367 492.853 236.366 496.103 242.116 488.853C247.866 481.603 225.492 485.105 227.366 488.853C232.204 498.528 226.779 490.509 222.255 485.933C223.937 491.215 226.073 501.038 227.366 507.603C216.366 507.603 212.616 504.353 208.616 500.353C204.616 496.353 183.616 500.603 196.116 483.853C208.616 467.103 209.116 465.853 214.866 463.353C220.616 460.853 215.116 464.103 205.616 461.103C196.116 458.103 183.116 455.353 181.866 449.603C180.616 443.853 183.616 431.103 196.116 437.603C208.616 444.103 223.367 452.603 227.366 446.853C231.366 441.103 245.116 432.853 229.616 432.103C214.116 431.353 198.616 434.103 193.616 429.103C188.616 424.103 181.616 421.353 178.866 413.853C176.116 406.353 177.366 395.353 181.866 396.853C186.366 398.353 185.116 392.853 176.616 384.353C168.116 375.853 166.866 368.353 170.366 359.853C173.866 351.353 185.117 348.603 170.366 342.853C155.616 337.103 154.116 330.603 155.116 321.353C156.116 312.103 154.616 312.103 158.616 305.353C162.616 298.603 165.116 278.603 161.866 266.603C158.616 254.603 166.866 242.853 170.366 242.853C173.866 242.853 166.366 269.353 176.616 266.603C186.866 263.853 166.866 243.603 174.366 238.853C181.866 234.103 182.616 239.353 187.616 246.603C193.021 254.44 174.616 224.853 187.616 215.603C200.616 206.353 199.616 207.603 193.616 195.103C187.616 182.603 195.616 175.353 198.366 171.853C201.116 168.353 224.616 150.353 216.616 142.603C208.616 134.853 183.866 124.853 187.616 115.603C191.366 106.353 219.866 134.103 223.366 132.103C226.866 130.103 211.616 111.103 220.616 105.353C229.616 99.6032 223.366 104.353 223.366 111.603C223.366 118.853 227.366 140.603 234.116 128.103C240.866 115.603 230.866 104.853 240.366 98.8532C249.866 92.8532 240.366 115.103 246.616 111.603C252.866 108.103 246.616 86.3532 263.116 79.6032C279.616 72.8532 282.866 83.6032 293.116 79.6032C303.366 75.6032 333.866 85.1032 322.866 75.6032C311.866 66.1032 325.616 59.6032 337.616 67.6032C349.616 75.6032 353.366 87.3532 359.116 86.3532C364.866 85.3532 338.616 76.1032 353.366 71.8532C368.116 67.6032 380.116 64.8532 384.616 75.6032C389.116 86.3532 383.866 83.6032 399.366 79.6032C414.866 75.6032 424.116 97.1032 429.616 86.3532C435.116 75.6032 434.366 71.6032 451.866 75.6032C469.366 79.6032 469.866 92.3532 469.866 98.8532C469.866 105.353 466.866 115.603 464.366 118.353C461.866 121.103 468.866 105.103 460.366 98.8532C451.866 92.6032 447.366 79.3532 441.616 86.3532C435.866 93.3532 450.866 95.1032 455.616 105.353C460.366 115.603 462.366 125.103 476.116 118.353C489.866 111.603 487.866 108.853 497.116 124.103C506.366 139.353 505.366 141.853 512.616 149.103C519.866 156.353 523.866 157.353 521.616 167.353C519.366 177.353 527.116 164.353 532.366 176.853C537.616 189.353 515.366 193.103 530.116 200.103C544.866 207.103 549.616 216.853 538.116 231.853C526.616 246.853 550.866 248.103 549.616 257.103C548.366 266.103 554.866 281.103 544.866 279.853C534.866 278.603 530.616 261.853 521.616 273.353C512.616 284.853 549.116 272.853 557.866 289.853C566.616 306.853 566.116 317.603 557.866 325.603C549.616 333.603 569.116 292.353 549.616 292.853C530.116 293.353 538.116 294.103 538.116 309.853C538.116 325.603 531.866 328.353 544.866 335.353C557.866 342.353 577.366 332.103 567.616 361.603C557.866 391.103 553.866 401.603 532.366 406.353C510.866 411.103 541.866 395.353 530.116 388.353C518.366 381.353 514.366 378.603 510.866 395.603C507.366 412.603 500.116 409.603 496.616 394.853C493.116 380.103 495.616 389.353 495.616 406.353C495.616 423.353 470.116 428.353 482.866 437.603C495.616 446.853 493.116 443.103 507.366 437.603C521.616 432.103 526.116 451.103 510.866 461.103C495.616 471.103 475.095 459.603 476.116 461.103C484.556 473.504 499.616 471.353 489.116 485.853C478.616 500.353 475.866 485.353 471.116 492.853C466.366 500.353 476.866 510.603 464.866 517.103C452.866 523.603 442.866 523.353 441.366 517.103C439.866 510.853 460.616 514.853 448.866 507.603C437.116 500.353 431.866 494.103 432.116 490.603C432.316 487.803 435.7 482.936 437.366 480.853L449.75 469.75L454.5 461.103L462.116 447.853C463.783 442.686 466.55 431.55 466.75 427.75C466.95 423.95 468.283 414.52 468.616 410.353L469.25 401.25C472.333 400.25 479.116 396.753 480.116 388.353C481.366 377.853 481 382.75 480.116 378.75C479.535 376.12 480.294 374.95 481.166 374.48C480.863 374.451 480.515 374.41 480.116 374.353C473.116 373.353 484 364.25 486.25 357.5C488.5 350.75 485 344.75 485 341.25C485 337.75 487.616 349.353 489.116 339.603C490.616 329.853 494.616 327.853 487.366 333.103C480.116 338.353 484.116 326.353 480.116 326.853C476.916 327.253 476.116 321.02 476.116 317.853L475.116 303.603L472.116 280.103L471.5 275.5V255C470.384 254.147 471.416 253.803 469.616 254.603C467.366 255.603 452.116 255.103 443.116 252.353C434.116 249.603 448.616 230.353 434.116 235.603C419.616 240.853 428.866 219.353 422.366 231.853C415.866 244.353 407.366 210.853 422.366 209.353C437.366 207.853 416.116 189.103 412.366 206.603C408.616 224.103 388.616 205.353 408.366 195.103C428.116 184.853 435.616 193.603 443.116 200.103C450.616 206.603 443.866 175.103 422.366 184.853C400.866 194.604 420.616 171.853 399.866 187.103C379.116 202.353 388.366 195.103 399.866 211.603C411.366 228.103 417.616 235.353 405.866 243.853C394.116 252.353 388.116 214.353 371.116 227.353C354.116 240.353 355.366 213.853 339.366 211.603C323.366 209.353 350.581 194.616 336.116 181.853C327.616 174.353 347.57 192.604 329.366 189.103C322.866 187.853 342.366 181.603 315.616 190.853C288.866 200.103 290.866 174.853 296.116 206.603C301.366 238.353 287.866 216.353 276.366 227.353C274.154 229.469 273.099 230.373 272.839 230.589C273.785 229.836 284.745 221.511 285.116 235.603C285.616 254.603 286.116 262.103 273.366 263.353C260.616 264.603 278.366 239.353 264.866 241.603C251.366 243.853 261.616 264.353 264.866 268.853C268.116 273.353 257.366 266.603 252.616 273.353C248.816 278.753 248.533 289.103 248.866 293.603V310.603C249.116 313.02 248.516 319.703 244.116 327.103C238.616 336.353 234.366 310.603 236.866 323.353C239.366 336.103 248.616 326.603 247.866 333.603C247.116 340.603 251.366 344.103 240.866 340.103C230.366 336.103 229.866 310.603 230.116 322.103C230.366 333.603 227.866 335.103 233.866 342.853C239.866 350.603 240.366 336.353 244.116 344.103C247.866 351.853 237.866 344.353 235.866 352.353C233.866 360.353 235.866 363.103 235.866 367.603C235.866 371.203 238.533 378.603 239.866 381.853L245.25 394L250 398.103H254.866L258.616 419.853L260.866 430.853L262.616 434.603L267.366 446.603L271.366 454.103L276.616 461.353L283.866 470.353L288.866 475.103L293.617 492.853Z" fill="#61451A"/>
<path d="M481.616 398.603C480.016 395.003 476.116 391.603 474.366 390.353C479.166 391.353 482.2 394.77 483.116 396.353C486.866 405.353 485.116 411.353 480.866 416.353C477.466 420.353 470.833 421.25 467.75 421L468.25 415.603C472.5 417.603 471.616 418.103 477.616 415.603C483.616 413.103 483.616 403.103 481.616 398.603Z" fill="#E4D271"/>
<path d="M239.867 405.853C239.867 398.453 244.867 394.936 247.367 394.103L247.117 393.853C243.616 392.603 235.617 399.603 238.617 410.603C241.617 421.603 254.034 421.853 259.867 420.603L258.117 418.603C249.867 421.353 239.867 415.103 239.867 405.853Z" fill="#E4D271"/>
<path d="M252.366 305.853L253.366 301.103C251.865 300.353 240.616 301.103 238.866 302.353C237.466 303.353 238.282 306.103 238.866 307.353C241.066 307.553 248.782 306.436 252.366 305.853Z" fill="#D4AF37"/>
<path d="M241 307.25C242.333 306.5 245.316 304.703 246.116 304.103C246.971 303.462 249.651 303.917 250.724 303.907C251.054 303.825 251.22 303.801 251.116 303.853C251.043 303.89 250.907 303.905 250.724 303.907C249.472 304.217 245.866 305.363 245.866 306.353V306.75L241 307.25Z" fill="#B69221"/>
<path d="M477.366 299.603C475.966 297.603 475.616 295.103 475.616 294.103C475.616 293.103 487.366 294.103 488.616 294.103C489.866 294.103 489.616 298.603 489.116 299.353C488.716 299.953 481.116 299.77 477.366 299.603Z" fill="#D4AF37"/>
<path d="M479.866 296.353C478.666 295.953 477.2 297.186 476.616 297.853L477.616 299.603H483.866C484.866 298.853 486.716 297.353 486.116 297.353C485.366 297.353 481.366 296.853 479.866 296.353Z" fill="#B69221"/>
<path d="M393.178 285.84C389.499 289.886 387.128 297.158 386.401 300.289C382.771 332.559 404.795 344.359 410.846 347.008C416.896 349.657 441.341 355.678 459.251 340.988C477.16 326.298 476.676 305.828 476.434 300.53C476.192 295.232 468.689 274.762 452.474 270.668C436.258 266.574 420.527 267.297 410.846 272.113C401.165 276.929 397.777 280.783 393.178 285.84Z" fill="#B5A098" fill-opacity="0.4"/>
<g filter="url(#filter2_d_49_56741)">
<path d="M349.116 297.103C344.516 298.103 343.033 300.186 342.866 301.103L342.366 300.603C344.366 295.853 345.366 295.353 350.366 294.353C355.366 293.353 376.116 293.103 380.616 293.853C384.216 294.453 385.283 298.103 385.366 299.853L384.116 303.853C384.316 301.253 382.7 298.27 381.866 297.103C376.366 294.353 354.866 295.853 349.116 297.103Z" fill="#D4AF37"/>
</g>
<g filter="url(#filter3_d_49_56741)">
<path fill-rule="evenodd" clip-rule="evenodd" d="M251.614 300.603C252.531 297.853 255.014 291.553 257.614 288.353C260.864 284.353 272.616 272.603 289.366 271.853C289.781 271.834 290.192 271.816 290.597 271.798C306.566 271.074 315.511 270.669 331.114 283.103C347.114 295.853 345.364 319.853 343.364 323.853C343.136 324.309 342.86 324.982 342.513 325.826C339.814 332.396 332.852 349.344 311.364 355.103C287.114 361.603 265.616 350.353 258.366 337.353C258.167 336.995 257.971 336.646 257.781 336.305C252.007 325.978 250.404 323.11 251.614 300.603ZM253.482 301.265C254.371 298.627 256.777 292.585 259.296 289.516C262.445 285.68 273.833 274.411 290.063 273.692C290.465 273.674 290.863 273.656 291.256 273.639C306.73 272.945 315.396 272.557 330.516 284.481C346.019 296.709 344.324 319.726 342.386 323.562C342.165 324 341.897 324.645 341.561 325.455C338.945 331.755 332.199 348.009 311.378 353.533C287.881 359.766 267.05 348.977 260.025 336.51C259.831 336.166 259.642 335.832 259.458 335.505C253.863 325.601 252.31 322.85 253.482 301.265Z" fill="#D4AF37"/>
</g>
<g filter="url(#filter4_d_49_56741)">
<path fill-rule="evenodd" clip-rule="evenodd" d="M385.116 300.103C385.866 296.853 388.316 289.303 392.116 285.103C392.215 284.993 392.314 284.884 392.413 284.775C397.015 279.685 400.575 275.749 410.366 270.853C420.366 265.853 436.616 265.103 453.366 269.353C470.116 273.603 477.866 294.853 478.116 300.353C478.366 305.853 478.866 327.103 460.366 342.353C441.866 357.603 416.616 351.353 410.366 348.603C404.116 345.853 381.366 333.603 385.116 300.103ZM386.261 300.752C386.987 297.622 389.359 290.349 393.038 286.303C393.134 286.197 393.23 286.092 393.325 285.987C397.781 281.084 401.227 277.292 410.705 272.576C420.386 267.76 436.118 267.037 452.333 271.131C468.549 275.225 476.052 295.695 476.294 300.993C476.536 306.291 477.02 326.761 459.11 341.451C441.2 356.141 416.756 350.12 410.705 347.471C404.655 344.822 382.631 333.022 386.261 300.752Z" fill="#D4AF37"/>
</g>
<path d="M472.866 554.353C467.266 548.753 455.866 546.186 450.866 545.603C469.117 556.103 467.616 562.853 460.366 581.103C453.116 599.353 430.616 608.853 418.866 612.603C407.116 616.353 324.866 621.603 302.616 610.603C280.366 599.603 273.616 578.103 270.866 566.853C268.666 557.853 275.45 552.436 279.116 550.853C275.366 551.52 267.116 554.303 264.116 560.103C260.366 567.353 246.866 569.603 243.866 569.353C240.866 569.103 236.366 573.603 232.366 573.353C228.366 573.103 219.116 575.853 215.366 579.603C212.366 582.603 201.116 584.853 195.866 585.603C189.866 587.77 178.5 589.25 173.5 589.25C137.5 595.767 91.4108 621.201 72.8662 633.103C61.3848 645.421 48.75 670.353 41.25 675.603C26.7704 695.086 13.2945 727.554 8.3665 741.353C0.966496 750.353 0.116496 771.77 0.616496 781.353H727.617C731.617 763.353 727.117 715.853 723.617 705.103C720.117 694.353 708.117 678.103 709.617 675.603C711.117 673.103 703.117 667.353 701.117 661.103C699.117 654.853 681.617 640.103 678.867 636.353C676.667 633.353 666.783 624.436 662.117 620.353C646.367 601.353 639.867 603.603 638.117 602.853C636.716 602.253 617.533 597.603 608.117 595.353C590.2 589.853 551.817 578.703 541.617 578.103C528.867 577.353 497.366 565.603 496.116 564.853C494.866 564.103 479.866 561.353 472.866 554.353Z" fill="#5781FF"/>
</g>
<defs>
<filter id="filter0_d_49_56741" x="383.299" y="354.575" width="17.5947" height="35.7861" filterUnits="userSpaceOnUse" color-interpolation-filters="sRGB">
<feFlood flood-opacity="0" result="BackgroundImageFix"/>
<feColorMatrix in="SourceAlpha" type="matrix" values="0 0 0 0 0 0 0 0 0 0 0 0 0 0 0 0 0 0 127 0" result="hardAlpha"/>
<feOffset dy="0.5"/>
<feGaussianBlur stdDeviation="1"/>
<feComposite in2="hardAlpha" operator="out"/>
<feColorMatrix type="matrix" values="0 0 0 0 0 0 0 0 0 0 0 0 0 0 0 0 0 0 0.25 0"/>
<feBlend mode="normal" in2="BackgroundImageFix" result="effect1_dropShadow_49_56741"/>
<feBlend mode="normal" in="SourceGraphic" in2="effect1_dropShadow_49_56741" result="shape"/>
</filter>
<filter id="filter1_d_49_56741" x="331.855" y="358.564" width="19.5391" height="31.5557" filterUnits="userSpaceOnUse" color-interpolation-filters="sRGB">
<feFlood flood-opacity="0" result="BackgroundImageFix"/>
<feColorMatrix in="SourceAlpha" type="matrix" values="0 0 0 0 0 0 0 0 0 0 0 0 0 0 0 0 0 0 127 0" result="hardAlpha"/>
<feOffset dy="0.5"/>
<feGaussianBlur stdDeviation="1"/>
<feComposite in2="hardAlpha" operator="out"/>
<feColorMatrix type="matrix" values="0 0 0 0 0 0 0 0 0 0 0 0 0 0 0 0 0 0 0.25 0"/>
<feBlend mode="normal" in2="BackgroundImageFix" result="effect1_dropShadow_49_56741"/>
<feBlend mode="normal" in="SourceGraphic" in2="effect1_dropShadow_49_56741" result="shape"/>
</filter>
<filter id="filter2_d_49_56741" x="340.366" y="291.917" width="47" height="14.436" filterUnits="userSpaceOnUse" color-interpolation-filters="sRGB">
<feFlood flood-opacity="0" result="BackgroundImageFix"/>
<feColorMatrix in="SourceAlpha" type="matrix" values="0 0 0 0 0 0 0 0 0 0 0 0 0 0 0 0 0 0 127 0" result="hardAlpha"/>
<feOffset dy="0.5"/>
<feGaussianBlur stdDeviation="1"/>
<feComposite in2="hardAlpha" operator="out"/>
<feColorMatrix type="matrix" values="0 0 0 0 0 0 0 0 0 0 0 0 0 0 0 0 0 0 0.25 0"/>
<feBlend mode="normal" in2="BackgroundImageFix" result="effect1_dropShadow_49_56741"/>
<feBlend mode="normal" in="SourceGraphic" in2="effect1_dropShadow_49_56741" result="shape"/>
</filter>
<filter id="filter3_d_49_56741" x="249.236" y="270" width="97.3979" height="89.5015" filterUnits="userSpaceOnUse" color-interpolation-filters="sRGB">
<feFlood flood-opacity="0" result="BackgroundImageFix"/>
<feColorMatrix in="SourceAlpha" type="matrix" values="0 0 0 0 0 0 0 0 0 0 0 0 0 0 0 0 0 0 127 0" result="hardAlpha"/>
<feOffset dy="0.5"/>
<feGaussianBlur stdDeviation="1"/>
<feComposite in2="hardAlpha" operator="out"/>
<feColorMatrix type="matrix" values="0 0 0 0 0 0 0 0 0 0 0 0 0 0 0 0 0 0 0.25 0"/>
<feBlend mode="normal" in2="BackgroundImageFix" result="effect1_dropShadow_49_56741"/>
<feBlend mode="normal" in="SourceGraphic" in2="effect1_dropShadow_49_56741" result="shape"/>
</filter>
<filter id="filter4_d_49_56741" x="382.701" y="265.083" width="97.4824" height="89.645" filterUnits="userSpaceOnUse" color-interpolation-filters="sRGB">
<feFlood flood-opacity="0" result="BackgroundImageFix"/>
<feColorMatrix in="SourceAlpha" type="matrix" values="0 0 0 0 0 0 0 0 0 0 0 0 0 0 0 0 0 0 127 0" result="hardAlpha"/>
<feOffset dy="0.5"/>
<feGaussianBlur stdDeviation="1"/>
<feComposite in2="hardAlpha" operator="out"/>
<feColorMatrix type="matrix" values="0 0 0 0 0 0 0 0 0 0 0 0 0 0 0 0 0 0 0.25 0"/>
<feBlend mode="normal" in2="BackgroundImageFix" result="effect1_dropShadow_49_56741"/>
<feBlend mode="normal" in="SourceGraphic" in2="effect1_dropShadow_49_56741" result="shape"/>
</filter>
<clipPath id="clip0_49_56741">
<rect width="729" height="781.5" fill="white"/>
</clipPath>
</defs>
</svg>
