<svg width="89" height="15" viewBox="0 0 89 15" fill="none" xmlns="http://www.w3.org/2000/svg">
<path d="M7.22709 12.5165C6.72709 9.18321 6.72709 2.41654 10.7271 2.01654C15.7271 1.51654 11.7271 12.5165 7.22709 12.5165Z" fill="black"/>
<path d="M5.81539 12.5331C6.31539 9.19981 6.31539 2.43314 2.31539 2.03314C-2.68461 1.53314 1.31535 12.5331 5.81539 12.5331Z" fill="black"/>
<path d="M20.028 12.192C19.356 12.192 18.732 12.088 18.156 11.88C17.588 11.664 17.092 11.36 16.668 10.968C16.252 10.576 15.928 10.112 15.696 9.576C15.464 9.04 15.348 8.448 15.348 7.8C15.348 7.152 15.464 6.56 15.696 6.024C15.928 5.488 16.252 5.024 16.668 4.632C17.092 4.24 17.588 3.94 18.156 3.732C18.732 3.516 19.356 3.408 20.028 3.408C20.852 3.408 21.58 3.552 22.212 3.84C22.852 4.128 23.38 4.544 23.796 5.088L22.008 6.684C21.76 6.372 21.484 6.132 21.18 5.964C20.884 5.788 20.548 5.7 20.172 5.7C19.876 5.7 19.608 5.748 19.368 5.844C19.128 5.94 18.92 6.08 18.744 6.264C18.576 6.448 18.444 6.672 18.348 6.936C18.252 7.192 18.204 7.48 18.204 7.8C18.204 8.12 18.252 8.412 18.348 8.676C18.444 8.932 18.576 9.152 18.744 9.336C18.92 9.52 19.128 9.66 19.368 9.756C19.608 9.852 19.876 9.9 20.172 9.9C20.548 9.9 20.884 9.816 21.18 9.648C21.484 9.472 21.76 9.228 22.008 8.916L23.796 10.512C23.38 11.048 22.852 11.464 22.212 11.76C21.58 12.048 20.852 12.192 20.028 12.192ZM27.9662 12.12C27.1662 12.12 26.4662 11.972 25.8662 11.676C25.2742 11.38 24.8142 10.976 24.4862 10.464C24.1582 9.944 23.9942 9.36 23.9942 8.712C23.9942 8.048 24.1542 7.46 24.4742 6.948C24.8022 6.436 25.2462 6.036 25.8062 5.748C26.3742 5.46 27.0102 5.316 27.7142 5.316C28.3622 5.316 28.9582 5.444 29.5022 5.7C30.0542 5.956 30.4942 6.336 30.8222 6.84C31.1582 7.344 31.3262 7.968 31.3262 8.712C31.3262 8.808 31.3222 8.916 31.3142 9.036C31.3062 9.148 31.2982 9.252 31.2902 9.348H26.2382V8.04H29.8502L28.8302 8.388C28.8302 8.132 28.7822 7.916 28.6862 7.74C28.5982 7.556 28.4742 7.416 28.3142 7.32C28.1542 7.216 27.9622 7.164 27.7382 7.164C27.5142 7.164 27.3182 7.216 27.1502 7.32C26.9902 7.416 26.8662 7.556 26.7782 7.74C26.6902 7.916 26.6462 8.132 26.6462 8.388V8.796C26.6462 9.076 26.7022 9.316 26.8142 9.516C26.9262 9.716 27.0862 9.868 27.2942 9.972C27.5022 10.068 27.7542 10.116 28.0502 10.116C28.3542 10.116 28.6022 10.076 28.7942 9.996C28.9942 9.916 29.2022 9.796 29.4182 9.636L30.8342 11.064C30.5142 11.408 30.1182 11.672 29.6462 11.856C29.1822 12.032 28.6222 12.12 27.9662 12.12ZM27.1262 4.716L24.7622 2.796H27.3422L28.9262 4.716H27.1262ZM32.182 12V3.096H34.894V12H32.182ZM36.0961 12V5.436H38.8081V12H36.0961ZM37.4521 4.908C36.9561 4.908 36.5601 4.776 36.2641 4.512C35.9681 4.248 35.8201 3.92 35.8201 3.528C35.8201 3.136 35.9681 2.808 36.2641 2.544C36.5601 2.28 36.9561 2.148 37.4521 2.148C37.9481 2.148 38.3441 2.272 38.6401 2.52C38.9361 2.768 39.0841 3.088 39.0841 3.48C39.0841 3.896 38.9361 4.24 38.6401 4.512C38.3441 4.776 37.9481 4.908 37.4521 4.908ZM43.9822 12V10.836L43.7902 10.524V8.316C43.7902 7.996 43.6902 7.752 43.4902 7.584C43.2982 7.416 42.9822 7.332 42.5422 7.332C42.2462 7.332 41.9462 7.38 41.6422 7.476C41.3382 7.564 41.0782 7.688 40.8622 7.848L39.9982 6.06C40.3822 5.82 40.8422 5.636 41.3782 5.508C41.9142 5.38 42.4382 5.316 42.9502 5.316C44.0782 5.316 44.9502 5.568 45.5662 6.072C46.1902 6.576 46.5022 7.376 46.5022 8.472V12H43.9822ZM42.1222 12.12C41.5862 12.12 41.1382 12.028 40.7782 11.844C40.4182 11.66 40.1462 11.416 39.9622 11.112C39.7782 10.8 39.6862 10.456 39.6862 10.08C39.6862 9.656 39.7942 9.296 40.0102 9C40.2262 8.704 40.5542 8.48 40.9942 8.328C41.4422 8.176 42.0062 8.1 42.6862 8.1H44.0542V9.408H43.1182C42.8302 9.408 42.6182 9.456 42.4822 9.552C42.3542 9.64 42.2902 9.776 42.2902 9.96C42.2902 10.112 42.3462 10.24 42.4582 10.344C42.5782 10.44 42.7382 10.488 42.9382 10.488C43.1222 10.488 43.2902 10.44 43.4422 10.344C43.6022 10.24 43.7182 10.08 43.7902 9.864L44.1382 10.668C44.0342 11.156 43.8142 11.52 43.4782 11.76C43.1422 12 42.6902 12.12 42.1222 12.12ZM56.8039 3.6H59.6359V12H56.8039V3.6ZM54.1879 12H51.3559V3.6H54.1879V12ZM56.9959 8.904H53.9959V6.576H56.9959V8.904ZM64.3844 12.12C63.6404 12.12 62.9804 11.976 62.4044 11.688C61.8364 11.392 61.3884 10.988 61.0604 10.476C60.7324 9.964 60.5684 9.376 60.5684 8.712C60.5684 8.048 60.7324 7.46 61.0604 6.948C61.3884 6.436 61.8364 6.036 62.4044 5.748C62.9804 5.46 63.6404 5.316 64.3844 5.316C65.1284 5.316 65.7884 5.46 66.3644 5.748C66.9404 6.036 67.3884 6.436 67.7084 6.948C68.0364 7.46 68.2004 8.048 68.2004 8.712C68.2004 9.376 68.0364 9.964 67.7084 10.476C67.3884 10.988 66.9404 11.392 66.3644 11.688C65.7884 11.976 65.1284 12.12 64.3844 12.12ZM64.3844 10.008C64.5844 10.008 64.7644 9.96 64.9244 9.864C65.0844 9.768 65.2124 9.624 65.3084 9.432C65.4044 9.232 65.4524 8.992 65.4524 8.712C65.4524 8.424 65.4044 8.188 65.3084 8.004C65.2124 7.812 65.0844 7.668 64.9244 7.572C64.7644 7.476 64.5844 7.428 64.3844 7.428C64.1844 7.428 64.0044 7.476 63.8444 7.572C63.6844 7.668 63.5564 7.812 63.4604 8.004C63.3644 8.188 63.3164 8.424 63.3164 8.712C63.3164 8.992 63.3644 9.232 63.4604 9.432C63.5564 9.624 63.6844 9.768 63.8444 9.864C64.0044 9.96 64.1844 10.008 64.3844 10.008ZM71.6172 12.12C71.0572 12.12 70.5052 12.06 69.9612 11.94C69.4172 11.82 68.9772 11.664 68.6412 11.472L69.3852 9.684C69.6972 9.868 70.0572 10.012 70.4652 10.116C70.8812 10.22 71.2852 10.272 71.6772 10.272C72.0052 10.272 72.2252 10.244 72.3372 10.188C72.4572 10.132 72.5172 10.056 72.5172 9.96C72.5172 9.864 72.4492 9.796 72.3132 9.756C72.1772 9.708 71.9972 9.672 71.7732 9.648C71.5492 9.624 71.3012 9.596 71.0292 9.564C70.7652 9.524 70.4972 9.468 70.2252 9.396C69.9532 9.324 69.7052 9.216 69.4812 9.072C69.2572 8.928 69.0772 8.736 68.9412 8.496C68.8052 8.248 68.7372 7.936 68.7372 7.56C68.7372 7.144 68.8612 6.768 69.1092 6.432C69.3652 6.096 69.7412 5.828 70.2372 5.628C70.7412 5.42 71.3612 5.316 72.0972 5.316C72.5772 5.316 73.0572 5.36 73.5372 5.448C74.0172 5.536 74.4292 5.672 74.7732 5.856L74.0292 7.644C73.6932 7.46 73.3612 7.336 73.0332 7.272C72.7132 7.2 72.4132 7.164 72.1332 7.164C71.7892 7.164 71.5532 7.196 71.4252 7.26C71.3052 7.324 71.2452 7.396 71.2452 7.476C71.2452 7.572 71.3132 7.644 71.4492 7.692C71.5852 7.74 71.7652 7.776 71.9892 7.8C72.2132 7.824 72.4572 7.856 72.7212 7.896C72.9932 7.928 73.2612 7.984 73.5252 8.064C73.7972 8.136 74.0452 8.244 74.2692 8.388C74.4932 8.532 74.6732 8.728 74.8092 8.976C74.9452 9.216 75.0132 9.524 75.0132 9.9C75.0132 10.292 74.8892 10.66 74.6412 11.004C74.3932 11.34 74.0172 11.612 73.5132 11.82C73.0092 12.02 72.3772 12.12 71.6172 12.12ZM79.0024 12.12C78.0984 12.12 77.3944 11.904 76.8904 11.472C76.3864 11.032 76.1344 10.36 76.1344 9.456V3.96H78.8464V9.432C78.8464 9.632 78.8984 9.788 79.0024 9.9C79.1144 10.012 79.2504 10.068 79.4104 10.068C79.6424 10.068 79.8464 10.008 80.0224 9.888L80.6704 11.772C80.4624 11.892 80.2104 11.98 79.9144 12.036C79.6264 12.092 79.3224 12.12 79.0024 12.12ZM75.2344 7.776V5.796H80.1904V7.776H75.2344ZM84.8021 12.12C84.0021 12.12 83.3021 11.972 82.7021 11.676C82.1101 11.38 81.6501 10.976 81.3221 10.464C80.9941 9.944 80.8301 9.36 80.8301 8.712C80.8301 8.048 80.9901 7.46 81.3101 6.948C81.6381 6.436 82.0821 6.036 82.6421 5.748C83.2101 5.46 83.8461 5.316 84.5501 5.316C85.1981 5.316 85.7941 5.444 86.3381 5.7C86.8901 5.956 87.3301 6.336 87.6581 6.84C87.9941 7.344 88.1621 7.968 88.1621 8.712C88.1621 8.808 88.1581 8.916 88.1501 9.036C88.1421 9.148 88.1341 9.252 88.1261 9.348H83.0741V8.04H86.6861L85.6661 8.388C85.6661 8.132 85.6181 7.916 85.5221 7.74C85.4341 7.556 85.3101 7.416 85.1501 7.32C84.9901 7.216 84.7981 7.164 84.5741 7.164C84.3501 7.164 84.1541 7.216 83.9861 7.32C83.8261 7.416 83.7021 7.556 83.6141 7.74C83.5261 7.916 83.4821 8.132 83.4821 8.388V8.796C83.4821 9.076 83.5381 9.316 83.6501 9.516C83.7621 9.716 83.9221 9.868 84.1301 9.972C84.3381 10.068 84.5901 10.116 84.8861 10.116C85.1901 10.116 85.4381 10.076 85.6301 9.996C85.8301 9.916 86.0381 9.796 86.2541 9.636L87.6701 11.064C87.3501 11.408 86.9541 11.672 86.4821 11.856C86.0181 12.032 85.4581 12.12 84.8021 12.12Z" fill="black"/>
</svg>
